<svg viewBox="0 0 96 96" xmlns="http://www.w3.org/2000/svg" xmlns:xlink="http://www.w3.org/1999/xlink" id="Icons_Restaurant1" overflow="hidden"><style>
.MsftOfcThm_Background1_Fill_v2 {
 fill:#FFFFFF; 
}
</style>
<path d="M56.4 67.587C57.127 67.604 57.874 67.615 58.645 67.615 59.517 67.615 60.379 67.598 61.235 67.574 61.3691 67.0016 61.3976 66.4096 61.319 65.827 61.045 63.82 59.661 62.351 58.228 62.547 56.795 62.743 55.853 64.527 56.128 66.535 56.1798 66.8946 56.271 67.2474 56.4 67.587Z" class="MsftOfcThm_Background1_Fill_v2" fill="#FFFFFF"/><path d="M70.978 66.666C71.715 66.534 72.35 66.401 72.899 66.266 72.971 66.136 73.047 66.01 73.109 65.866 73.925 64.012 73.509 62.037 72.188 61.454 70.867 60.871 69.129 61.902 68.313 63.754 67.8108 64.7928 67.7634 65.9938 68.182 67.069 69.166 66.959 70.1 66.822 70.978 66.666Z" class="MsftOfcThm_Background1_Fill_v2" fill="#FFFFFF"/><path d="M75.515 63.921C75.5099 64.3926 75.4525 64.8621 75.344 65.321L75.962 65.485C76.4957 65.6271 76.8131 66.1749 76.6711 66.7086 76.5845 67.0338 76.3402 67.2936 76.021 67.4 74.5026 67.9678 72.9306 68.3803 71.329 68.631 67.1349 69.3153 62.8904 69.6435 58.641 69.612 49.909 69.612 43.911 68.465 41.208 67.391 40.695 67.1864 40.445 66.6047 40.6496 66.0917 40.7493 65.8417 40.9455 65.6425 41.194 65.539L42.335 65.064C42.2165 64.6302 42.1699 64.1799 42.197 63.731 39.606 64.453 38.052 65.349 38.052 66.324 38.052 66.682 38.0623 67.038 38.083 67.392 38.3653 71.8813 40.6157 76.0169 44.232 78.692 46.6217 80.4889 49.4616 81.5902 52.438 81.874 52.9447 81.922 53.4567 81.9463 53.974 81.947L63.074 81.947C68.6173 81.9553 73.7757 79.1138 76.731 74.424 78.0514 72.3061 78.8204 69.8914 78.968 67.4 78.979 67.223 78.979 67.044 78.984 66.866 78.989 66.688 78.999 66.511 78.999 66.332 79 65.436 77.715 64.608 75.515 63.921Z" class="MsftOfcThm_Background1_Fill_v2" fill="#FFFFFF"/><path d="M45.962 66.591C46.996 66.791 48.174 66.964 49.49 67.117 48.3271 65.7436 48.0785 63.8155 48.855 62.192 48.772 62.159 48.697 62.117 48.611 62.092 46.696 61.433 44.761 62.008 44.291 63.376 43.9 64.5 44.634 65.794 45.962 66.591Z" class="MsftOfcThm_Background1_Fill_v2" fill="#FFFFFF"/><path d="M56.518 61.082C56.4304 60.9206 56.3203 60.7724 56.191 60.642 55.168 59.619 53.178 59.951 51.745 61.383 50.312 62.815 49.981 64.806 51 65.829 51.8845 66.5438 53.1221 66.6278 54.095 66.039 53.9354 64.0679 54.8646 62.1669 56.518 61.082Z" class="MsftOfcThm_Background1_Fill_v2" fill="#FFFFFF"/><path d="M92 72.5C92 65.475 82.7 59.369 69 56.236L69 60.014C69.7194 59.5603 70.5496 59.3126 71.4 59.298 71.9487 59.2964 72.4916 59.4095 72.994 59.63 73.9016 60.0399 74.6279 60.7676 75.036 61.676L76.112 62.012C77.321 62.39 81 63.54 81 66.327 81 66.474 80.994 66.62 80.989 66.767L80.979 67.084C80.979 67.227 80.973 67.369 80.965 67.51 80.946 67.825 80.916 68.138 80.88 68.451 81.7499 69.6245 82.2332 71.0395 82.263 72.5 82.263 80.45 66.908 86.906 48 86.906 29.092 86.906 13.737 80.45 13.737 72.5 13.737 68.218 18.197 64.374 25.263 61.735L25.263 60.69C23.4296 60.1388 21.6985 59.292 20.138 58.183 10.287 61.574 4 66.724 4 72.5 4 72.605 4.015 72.709 4.019 72.813 4.013 72.876 4 72.936 4 73 4 84.579 23.738 94 48 94 72.262 94 92 84.579 92 73 92 72.936 91.987 72.876 91.981 72.813 91.985 72.709 92 72.605 92 72.5Z" class="MsftOfcThm_Background1_Fill_v2" fill="#FFFFFF"/><path d="M37.346 72.989C36.9318 72.7851 36.4996 72.6201 36.055 72.496 35.0976 72.2381 34.116 72.0806 33.126 72.026 31.976 71.659 31.087 71.084 31.087 70.404L31.087 58.167C34.538 58.167 40.918 54.667 40.604 51.212L39.454 35 20.209 35 18.849 51.212C18.588 54.612 24.863 58.167 28.263 58.167L28.263 70.352C28.263 71.084 27.321 71.607 26.223 71.973 25.177 72.13 24.184 72.235 23.399 72.444L23.347 72.444C21.987 72.81 21.203 73.281 21.203 73.856 21.203 75.056 25.02 76 29.727 76 33.697 76 37.087 75.314 38.001 74.366 37.765 73.915 37.541 73.458 37.346 72.989ZM21.778 44.152 22.249 37.352 37.1 37.352 37.466 44.152Z" class="MsftOfcThm_Background1_Fill_v2" fill="#FFFFFF"/><path d="M47.024 59.815C47.786 59.8171 48.5424 59.9462 49.262 60.197 49.3742 60.2364 49.4844 60.2814 49.592 60.332L49.908 60.459C50.046 60.293 50.177 60.124 50.331 59.969 51.4576 58.7904 53.0015 58.1007 54.631 58.048 55.7396 58.0294 56.8096 58.4546 57.603 59.229 57.8672 59.4956 58.0919 59.7986 58.27 60.129L58.492 60.536C59.1456 60.5464 59.7867 60.716 60.36 61.03 60.8303 60.4547 61.3905 59.9593 62.019 59.563 63.0469 58.8989 64.2413 58.5384 65.465 58.523 65.6431 58.5314 65.8207 58.5491 65.997 58.576L65.997 31.455C65.9971 27.8034 63.9694 24.4539 60.734 22.761L59.786 6.091 60.609 6.091 60.609 5.273C60.6093 4.85263 60.5278 4.43622 60.369 4.047 59.8407 2.88122 58.6655 2.14529 57.386 2.179L53.4 2.179C52.1205 2.14502 50.9451 2.88104 50.417 4.047 50.2577 4.43608 50.1762 4.85258 50.177 5.273L50.177 6.091 50.94 6.091 49.993 22.761C46.757 24.4535 44.7289 27.8032 44.729 31.455L44.729 60.3C45.4509 59.9771 46.2332 59.8118 47.024 59.815Z" class="MsftOfcThm_Background1_Fill_v2" fill="#FFFFFF"/><path d="M66.482 62.957C66.7344 62.3825 67.0627 61.8444 67.458 61.357 66.616 60.289 64.722 60.218 63.088 61.247 62.6421 61.5279 62.2447 61.8791 61.911 62.287 62.6669 63.2283 63.1476 64.3604 63.3 65.558 63.3332 65.8428 63.3493 66.1293 63.348 66.416 64.247 66.4304 65.1297 66.1758 65.883 65.685 65.894 65.678 65.903 65.669 65.914 65.662 65.9139 64.7307 66.1073 63.8096 66.482 62.957Z" class="MsftOfcThm_Background1_Fill_v2" fill="#FFFFFF"/></svg>