<svg viewBox="0 0 96 96" xmlns="http://www.w3.org/2000/svg" xmlns:xlink="http://www.w3.org/1999/xlink" id="Icons_CoveredPlate" overflow="hidden"><style>
.MsftOfcThm_Background1_Fill_v2 {
 fill:#FFFFFF; 
}
</style>
<path d="M43 28C43 25.2 45.2 23 48 23 50.8 23 53 25.2 53 28 53 28.1 53 28.2 53 28.3 51.4 28.1 49.7 28 48 28 46.3 28 44.7 28.1 43 28.3 43 28.2 43 28.1 43 28ZM56.9 29.1C56.9 28.7 57 28.4 57 28 57 23 53 19 48 19 43 19 39 23 39 28 39 28.4 39 28.7 39.1 29.1 22.4 33.1 10 48.1 10 66L86 66C86 48.1 73.6 33.1 56.9 29.1Z" class="MsftOfcThm_Background1_Fill_v2" fill="#FFFFFF"/><path d="M8 70 8 72C8 74.2 9.8 76 12 76L84 76C86.2 76 88 74.2 88 72L88 70 8 70Z" class="MsftOfcThm_Background1_Fill_v2" fill="#FFFFFF"/></svg>